g Object003
v 0.007126636 0.1051743 0.0116151
v -0.01303621 0.1442392 0.008562459
v 0.008912887 0.144597 0.008577514
v -0.01303621 0.1442392 0.008562459
v 0.007126636 0.1051743 0.0116151
v -0.01271664 0.1186621 0.01218322
v -0.04382376 0.001067936 0.01024042
v -0.03954258 0.0006553483 -0.008550028
v -0.03314915 0.03340588 0.008158557
v 0.0241123 0.0901816 0.0109836
v 0.0241123 0.08952329 -0.0122687
v 0.03707289 0.03080738 -0.01479812
v 0.01755928 0.09330121 0.011904
v 0.01715401 0.09250251 -0.01590853
v 0.01991999 0.09218238 -0.01174118
v -0.03109056 0.115879 0.007741748
v -0.01754276 0.1190176 -0.01058036
v -0.01271664 0.1186621 0.01218322
v -0.01754276 0.1190176 -0.01058036
v -0.03109056 0.115879 0.007741748
v -0.03411608 0.1173687 -0.004524736
v -0.01271664 0.1186621 0.01218322
v -0.01754276 0.1190176 -0.01058036
v -0.0147691 0.1267226 -0.006592068
v -0.02884027 0.08285058 0.01268554
v -0.03411608 0.1173687 -0.004524736
v -0.03109056 0.115879 0.007741748
v -0.03411608 0.1173687 -0.004524736
v -0.02884027 0.08285058 0.01268554
v -0.02990374 0.05775235 -0.01301178
v -0.03492704 0.05537943 0.009517725
v -0.03899435 0.05472112 -0.01373458
v -0.02990374 0.05775235 -0.01301178
v 0.007126636 0.104516 -0.01163721
v 0.001174717 1.471043E-06 -0.03051149
v 0.004291954 0.0003691983 -0.01850925
v -0.03469604 0.05458713 -0.02308627
v -0.01911528 0.003216145 -0.03660543
v -0.0213537 0.04910116 -0.02527865
v -0.01911528 0.003216145 -0.03660543
v -0.03469604 0.05458713 -0.02308627
v -0.03189773 0.003372061 -0.03137808
v -0.01754276 0.1190176 -0.01058036
v 0.008019752 0.1242997 -0.0108039
v -0.0147691 0.1267226 -0.006592068
v 0.008019752 0.1242997 -0.0108039
v -0.01754276 0.1190176 -0.01058036
v 0.007126636 0.104516 -0.01163721
v -0.02990374 0.05775235 -0.01301178
v -0.01754276 0.1190176 -0.01058036
v -0.03411608 0.1173687 -0.004524736
v -0.03492704 0.05537943 0.009517725
v -0.02595282 0.0547062 0.01588586
v -0.03314915 0.03340588 0.008158557
v 0.02438673 0.0007905793 0.02408313
v 0.0241123 0.0901816 0.0109836
v 0.03489431 0.001420786 0.01631726
v -0.02884027 0.08285058 0.01268554
v -0.02595282 0.0547062 0.01588586
v -0.03492704 0.05537943 0.009517725
v -0.02595282 0.0547062 0.01588586
v -0.02884027 0.08285058 0.01268554
v -0.009415226 0.06587008 0.01536475
v -0.02990374 0.05775235 -0.01301178
v -0.02268402 0.0493607 -0.01780969
v -0.01754276 0.1190176 -0.01058036
v -0.03943512 0.0004219556 -0.01613423
v -0.03469604 0.05458713 -0.02308627
v -0.03899435 0.05472112 -0.01373458
v -0.03469604 0.05458713 -0.02308627
v -0.03943512 0.0004219556 -0.01613423
v -0.03189773 0.003372061 -0.03137808
v -0.03899435 0.05472112 -0.01373458
v -0.03469604 0.05458713 -0.02308627
v -0.02990374 0.05775235 -0.01301178
v -0.02268402 0.0493607 -0.01780969
v -0.0213537 0.04910116 -0.02527865
v -0.01328113 0.0457729 -0.02287726
v -0.01328113 0.0457729 -0.02287726
v -0.01911528 0.003216145 -0.03660543
v -0.0106179 2.384186E-09 -0.03056197
v -0.01911528 0.003216145 -0.03660543
v -0.01328113 0.0457729 -0.02287726
v -0.0213537 0.04910116 -0.02527865
v -0.0213537 0.04910116 -0.02527865
v -0.02268402 0.0493607 -0.01780969
v -0.03469604 0.05458713 -0.02308627
v -0.01754276 0.1190176 -0.01058036
v -0.02268402 0.0493607 -0.01780969
v -0.01328113 0.0457729 -0.02287726
v -0.03469604 0.05458713 -0.02308627
v -0.02268402 0.0493607 -0.01780969
v -0.02990374 0.05775235 -0.01301178
v -0.03492704 0.05537943 0.009517725
v -0.02990374 0.05775235 -0.01301178
v -0.02884027 0.08285058 0.01268554
v 0.04382376 0.0007420182 -0.00573458
v 0.03707289 0.03080738 -0.01479812
v 0.03588339 0.0005704904 -0.01130925
v 0.03707289 0.03080738 -0.01479812
v 0.03128694 0.0004517102 -0.0154735
v 0.03588339 0.0005704904 -0.01130925
v 0.008912887 0.1442638 -0.003177752
v -0.0147691 0.1267226 -0.006592068
v 0.008019752 0.1242997 -0.0108039
v -0.0147691 0.1267226 -0.006592068
v 0.008912887 0.1442638 -0.003177752
v -0.01303621 0.1439061 -0.003192812
v -0.01271664 0.1186621 0.01218322
v -0.01303621 0.1439061 -0.003192812
v -0.01303621 0.1442392 0.008562459
v -0.01303621 0.1439061 -0.003192812
v -0.01271664 0.1186621 0.01218322
v -0.0147691 0.1267226 -0.006592068
v 0.007126636 0.1051743 0.0116151
v 0.008019752 0.1242997 -0.0108039
v 0.007126636 0.104516 -0.01163721
v 0.02438673 0.0007905793 0.02408313
v 0.01593077 0.03998898 0.02767641
v 0.01857077 0.04789401 0.02126301
v 0.01593077 0.03998898 0.02767641
v 0.02438673 0.0007905793 0.02408313
v 0.02061193 0.001310313 0.03415787
v -0.007200832 0.04175162 0.02327301
v 0.009475479 0.03701197 0.03174072
v -0.005718174 0.03690629 0.0319127
v -0.007200832 0.04175162 0.02327301
v 0.01593077 0.03998898 0.02767641
v 0.009475479 0.03701197 0.03174072
v 0.01857077 0.04789401 0.02126301
v 0.01593077 0.03998898 0.02767641
v -0.007200832 0.04175162 0.02327301
v -0.004986458 0.0008379102 0.02562049
v -0.00097332 0.01768904 0.03551438
v 0.0008967972 0.001385653 0.03660544
v -0.004986458 0.0008379102 0.02562049
v -0.005718174 0.03690629 0.0319127
v -0.00097332 0.01768904 0.03551438
v -0.007200832 0.04175162 0.02327301
v -0.005718174 0.03690629 0.0319127
v -0.004986458 0.0008379102 0.02562049
v -0.03314915 0.03340588 0.008158557
v -0.03943512 0.0004219556 -0.01613423
v -0.03899435 0.05472112 -0.01373458
v -0.03943512 0.0004219556 -0.01613423
v -0.03314915 0.03340588 0.008158557
v -0.03954258 0.0006553483 -0.008550028
v -0.03314915 0.03340588 0.008158557
v -0.02936703 0.0009908509 0.01647028
v -0.04382376 0.001067936 0.01024042
v -0.03314915 0.03340588 0.008158557
v -0.02639358 0.0006393266 0.01916969
v -0.02936703 0.0009908509 0.01647028
v -0.02639358 0.0006393266 0.01916969
v -0.03314915 0.03340588 0.008158557
v -0.02595282 0.0547062 0.01588586
v -0.03314915 0.03340588 0.008158557
v -0.03899435 0.05472112 -0.01373458
v -0.03492704 0.05537943 0.009517725
v 0.03707289 0.03080738 -0.01479812
v 0.01798027 0.0004249978 -0.01661211
v 0.03128694 0.0004517102 -0.0154735
v 0.0241123 0.08952329 -0.0122687
v 0.01798027 0.0004249978 -0.01661211
v 0.03707289 0.03080738 -0.01479812
v 0.01991999 0.09218238 -0.01174118
v 0.01798027 0.0004249978 -0.01661211
v 0.0241123 0.08952329 -0.0122687
v 0.01755928 0.09330121 0.011904
v 0.0241123 0.08952329 -0.0122687
v 0.0241123 0.0901816 0.0109836
v 0.0241123 0.08952329 -0.0122687
v 0.01755928 0.09330121 0.011904
v 0.01991999 0.09218238 -0.01174118
v 0.007126636 0.104516 -0.01163721
v 0.01715401 0.09250251 -0.01590853
v 0.0181822 0.1037172 -0.01268224
v 0.03489431 0.001420786 0.01631726
v 0.03707289 0.03080738 -0.01479812
v 0.04382376 0.0007420182 -0.00573458
v 0.03707289 0.03080738 -0.01479812
v 0.03489431 0.001420786 0.01631726
v 0.0241123 0.0901816 0.0109836
v 0.001174717 1.471043E-06 -0.03051149
v -0.01328113 0.0457729 -0.02287726
v -0.0106179 2.384186E-09 -0.03056197
v 0.0008967972 0.001385653 0.03660544
v -0.00097332 0.01768904 0.03551438
v 0.02061193 0.001310313 0.03415787
v 0.01593077 0.03998898 0.02767641
v 0.009475479 0.03701197 0.03174072
v -0.005718174 0.03690629 0.0319127
v 0.007126636 0.1051743 0.0116151
v 0.0181822 0.1037172 -0.01268224
v 0.0181822 0.1044067 0.01158277
v 0.007126636 0.104516 -0.01163721
v 0.008912887 0.144597 0.008577514
v -0.01303621 0.1439061 -0.003192812
v 0.008912887 0.1442638 -0.003177752
v -0.01303621 0.1442392 0.008562459
v 0.0181822 0.1044067 0.01158277
v 0.01715401 0.09250251 -0.01590853
v 0.01755928 0.09330121 0.011904
v 0.0181822 0.1037172 -0.01268224
v 0.008912887 0.144597 0.008577514
v 0.008019752 0.1242997 -0.0108039
v 0.007126636 0.1051743 0.0116151
v 0.008912887 0.1442638 -0.003177752
v 0.01715401 0.09250251 -0.01590853
v 0.01798027 0.0004249978 -0.01661211
v 0.01991999 0.09218238 -0.01174118
v 0.01427565 0.0002548241 -0.02217443
v -0.01754276 0.1190176 -0.01058036
v -0.01328113 0.0457729 -0.02287726
v 0.007126636 0.104516 -0.01163721
v 0.001174717 1.471043E-06 -0.03051149
v 0.0241123 0.0901816 0.0109836
v 0.02438673 0.0007905793 0.02408313
v 0.01857077 0.04789401 0.02126301
v 0.01532927 0.07840134 0.01935254
v 0.0241123 0.0901816 0.0109836
v 0.01532927 0.07840134 0.01935254
v 0.01755928 0.09330121 0.011904
v 0.002437077 0.08347269 0.01539343
v 0.0181822 0.1044067 0.01158277
v 0.007126636 0.1051743 0.0116151
v -0.01271664 0.1186621 0.01218322
v -0.009415226 0.06587008 0.01536475
v 0.01857077 0.04789401 0.02126301
v -0.007200832 0.04175162 0.02327301
v -0.02884027 0.08285058 0.01268554
v -0.03109056 0.115879 0.007741748
v -0.02595282 0.0547062 0.01588586
v -0.004986458 0.0008379102 0.02562049
v -0.02639358 0.0006393266 0.01916969
v 0.007126636 0.104516 -0.01163721
v 0.01427565 0.0002548241 -0.02217443
v 0.01715401 0.09250251 -0.01590853
v 0.004291954 0.0003691983 -0.01850925
vt 0.3316312 0.9209483
vt 0.3066891 0.9627879
vt 0.3289544 0.9645985
vt 0.3066891 0.9627879
vt 0.3316312 0.9209483
vt 0.3062367 0.9338399
vt 0.2705008 0.8011142
vt 0.2512144 0.8058445
vt 0.2773526 0.8380851
vt 0.347868 0.8995488
vt 0.3714882 0.9058005
vt 0.3937286 0.8440589
vt 0.3422584 0.9041939
vt 0.3717689 0.9128757
vt 0.3685392 0.9099139
vt 0.2866678 0.9275244
vt 0.2834156 0.9473451
vt 0.3062367 0.9338399
vt 0.2834156 0.9473451
vt 0.2866678 0.9275244
vt 0.2747685 0.9325238
vt 0.3062367 0.9338399
vt 0.2834156 0.9473451
vt 0.2891873 0.9496428
vt 0.2893509 0.8926921
vt 0.2747685 0.9325238
vt 0.2866678 0.9275244
vt 0.2747685 0.9325238
vt 0.2893509 0.8926921
vt 0.2571365 0.8705143
vt 0.2806754 0.8626786
vt 0.2551891 0.8631996
vt 0.2571365 0.8705143
vt 0.5502891 0.9298685
vt 0.560239 0.8161023
vt 0.5475359 0.8177311
vt 0.5990848 0.8729478
vt 0.5837381 0.8170312
vt 0.5852503 0.8672838
vt 0.5837381 0.8170312
vt 0.5990848 0.8729478
vt 0.5986404 0.8182485
vt 0.5747344 0.9477813
vt 0.546795 0.950504
vt 0.5709684 0.9565235
vt 0.546795 0.950504
vt 0.5747344 0.9477813
vt 0.5502891 0.9298685
vt 0.5956438 0.8839474
vt 0.5747344 0.9477813
vt 0.5937105 0.9487569
vt 0.2806754 0.8626786
vt 0.2917653 0.8611305
vt 0.2773526 0.8380851
vt 0.3552035 0.8016392
vt 0.347868 0.8995488
vt 0.3690616 0.8044138
vt 0.2893509 0.8926921
vt 0.2917653 0.8611305
vt 0.2806754 0.8626786
vt 0.2917653 0.8611305
vt 0.2893509 0.8926921
vt 0.3102769 0.8743198
vt 0.5956438 0.8839474
vt 0.5855613 0.874434
vt 0.5747344 0.9477813
vt 0.6174107 0.8186931
vt 0.5990848 0.8729478
vt 0.6075566 0.877772
vt 0.5990848 0.8729478
vt 0.6174107 0.8186931
vt 0.5986404 0.8182485
vt 0.6075566 0.877772
vt 0.5990848 0.8729478
vt 0.5956438 0.8839474
vt 0.5855613 0.874434
vt 0.5852503 0.8672838
vt 0.5753633 0.8667837
vt 0.5753633 0.8667837
vt 0.5837381 0.8170312
vt 0.5724118 0.8160176
vt 0.5837381 0.8170312
vt 0.5753633 0.8667837
vt 0.5852503 0.8672838
vt 0.5852503 0.8672838
vt 0.5855613 0.874434
vt 0.5990848 0.8729478
vt 0.5747344 0.9477813
vt 0.5855613 0.874434
vt 0.5753633 0.8667837
vt 0.5990848 0.8729478
vt 0.5855613 0.874434
vt 0.5956438 0.8839474
vt 0.2806754 0.8626786
vt 0.2571365 0.8705143
vt 0.2893509 0.8926921
vt 0.4987413 0.81973
vt 0.5109802 0.8520044
vt 0.5091256 0.8193246
vt 0.5109802 0.8520044
vt 0.5156975 0.8191657
vt 0.5091256 0.8193246
vt 0.5437644 0.9731717
vt 0.5709684 0.9565235
vt 0.546795 0.950504
vt 0.5709684 0.9565235
vt 0.5437644 0.9731717
vt 0.5672045 0.9750113
vt 0.3062367 0.9338399
vt 0.2957904 0.9656514
vt 0.3066891 0.9627879
vt 0.2957904 0.9656514
vt 0.3062367 0.9338399
vt 0.2891873 0.9496428
vt 0.3316312 0.9209483
vt 0.3506942 0.9480906
vt 0.3574977 0.9309341
vt 0.3552035 0.8016392
vt 0.339686 0.8422942
vt 0.3427316 0.8528459
vt 0.339686 0.8422942
vt 0.3552035 0.8016392
vt 0.3443801 0.7992839
vt 0.3130862 0.8456876
vt 0.3332629 0.83746
vt 0.3180718 0.8373195
vt 0.3130862 0.8456876
vt 0.339686 0.8422942
vt 0.3332629 0.83746
vt 0.3427316 0.8528459
vt 0.339686 0.8422942
vt 0.3130862 0.8456876
vt 0.3106148 0.8001238
vt 0.3221588 0.816483
vt 0.3230918 0.7987484
vt 0.3106148 0.8001238
vt 0.3180718 0.8373195
vt 0.3221588 0.816483
vt 0.3130862 0.8456876
vt 0.3180718 0.8373195
vt 0.3106148 0.8001238
vt 0.2773526 0.8380851
vt 0.2435897 0.8063161
vt 0.2551891 0.8631996
vt 0.2435897 0.8063161
vt 0.2773526 0.8380851
vt 0.2512144 0.8058445
vt 0.2773526 0.8380851
vt 0.2862954 0.8024073
vt 0.2705008 0.8011142
vt 0.2773526 0.8380851
vt 0.2887228 0.8020182
vt 0.2862954 0.8024073
vt 0.2887228 0.8020182
vt 0.2773526 0.8380851
vt 0.2917653 0.8611305
vt 0.2773526 0.8380851
vt 0.2551891 0.8631996
vt 0.2806754 0.8626786
vt 0.5109802 0.8520044
vt 0.5297624 0.81849
vt 0.5156975 0.8191657
vt 0.5278635 0.9144316
vt 0.5297624 0.81849
vt 0.5109802 0.8520044
vt 0.5325732 0.9171439
vt 0.5297624 0.81849
vt 0.5278635 0.9144316
vt 0.3422584 0.9041939
vt 0.3714882 0.9058005
vt 0.347868 0.8995488
vt 0.3714882 0.9058005
vt 0.3422584 0.9041939
vt 0.3685392 0.9099139
vt 0.5502891 0.9298685
vt 0.5381424 0.9171479
vt 0.5382521 0.9297734
vt 0.3690616 0.8044138
vt 0.3937286 0.8440589
vt 0.3943012 0.8091745
vt 0.3937286 0.8440589
vt 0.3690616 0.8044138
vt 0.347868 0.8995488
vt 0.560239 0.8161023
vt 0.5753633 0.8667837
vt 0.5724118 0.8160176
vt 0.3230918 0.7987484
vt 0.3221588 0.816483
vt 0.3443801 0.7992839
vt 0.339686 0.8422942
vt 0.3332629 0.83746
vt 0.3180718 0.8373195
vt 0.3316312 0.9209483
vt 0.3640748 0.9223386
vt 0.3406575 0.9148805
vt 0.3574977 0.9309341
vt 0.3289544 0.9645985
vt 0.3048403 0.9755397
vt 0.3287492 0.9774592
vt 0.3066891 0.9627879
vt 0.3406575 0.9148805
vt 0.3717689 0.9128757
vt 0.3422584 0.9041939
vt 0.3640748 0.9223386
vt 0.3289544 0.9645985
vt 0.3506942 0.9480906
vt 0.3316312 0.9209483
vt 0.3400399 0.966841
vt 0.5381424 0.9171479
vt 0.5297624 0.81849
vt 0.5325732 0.9171439
vt 0.5365453 0.8177983
vt 0.5747344 0.9477813
vt 0.5753633 0.8667837
vt 0.5502891 0.9298685
vt 0.560239 0.8161023
vt 0.347868 0.8995488
vt 0.3552035 0.8016392
vt 0.3427316 0.8528459
vt 0.3374483 0.8863369
vt 0.347868 0.8995488
vt 0.3374483 0.8863369
vt 0.3422584 0.9041939
vt 0.3237111 0.8945749
vt 0.3406575 0.9148805
vt 0.3316312 0.9209483
vt 0.3062367 0.9338399
vt 0.3102769 0.8743198
vt 0.3427316 0.8528459
vt 0.3130862 0.8456876
vt 0.2893509 0.8926921
vt 0.2866678 0.9275244
vt 0.2917653 0.8611305
vt 0.3106148 0.8001238
vt 0.2887228 0.8020182
vt 0.5502891 0.9298685
vt 0.5365453 0.8177983
vt 0.5381424 0.9171479
vt 0.5475359 0.8177311
vn -0.00193745 0.07691117 0.9970361
vn -0.00193745 0.07691116 0.9970361
vn -0.00193745 0.07691116 0.9970361
vn 0.1236943 0.1406035 0.9823087
vn 0.1236943 0.1406035 0.9823087
vn 0.1236942 0.1406035 0.9823087
vn -0.9307569 0.2931721 -0.2184991
vn -0.9307569 0.2931721 -0.2184991
vn -0.9307569 0.2931721 -0.2184991
vn 0.9764202 0.2157921 -0.006109397
vn 0.9764202 0.2157921 -0.006109398
vn 0.9764202 0.2157921 -0.006109397
vn 0.1603928 0.9865767 -0.03066855
vn 0.1603928 0.9865767 -0.03066855
vn 0.1603928 0.9865767 -0.03066855
vn -0.1612877 0.9856608 0.04958957
vn -0.1612877 0.9856608 0.04958957
vn -0.1612877 0.9856608 0.04958957
vn -0.05005548 0.9899095 0.1325651
vn -0.05005548 0.9899095 0.1325651
vn -0.05005548 0.9899095 0.1325651
vn -0.9499166 0.2358015 0.2050756
vn -0.9499166 0.2358015 0.2050756
vn -0.9499167 0.2358015 0.2050756
vn -0.9713057 -0.03087854 0.2358213
vn -0.9713057 -0.03087854 0.2358213
vn -0.9713057 -0.03087854 0.2358213
vn -0.9880447 -0.08784851 0.1266898
vn -0.9880447 -0.08784851 0.1266898
vn -0.9880447 -0.08784851 0.1266898
vn -0.3182555 0.9475662 0.02884244
vn -0.3182555 0.947566 0.02884243
vn -0.3182555 0.947566 0.02884243
vn 0.9679147 -0.009776972 -0.2510884
vn 0.9679148 -0.009776973 -0.2510884
vn 0.9679148 -0.009776974 -0.2510884
vn -0.06216254 0.2363346 -0.9696813
vn -0.06216254 0.2363347 -0.9696813
vn -0.06216254 0.2363347 -0.9696813
vn -0.3740516 0.1282684 -0.9184948
vn -0.3740516 0.1282684 -0.9184948
vn -0.3740516 0.1282684 -0.9184948
vn -0.1083024 0.4874579 -0.8664038
vn -0.1083024 0.4874579 -0.8664038
vn -0.1083024 0.4874579 -0.8664038
vn -0.017594 0.04286955 -0.9989257
vn -0.01759401 0.04286956 -0.9989257
vn -0.01759401 0.04286956 -0.9989257
vn -0.3506306 0.1076646 -0.9303045
vn -0.3506306 0.1076646 -0.9303045
vn -0.3506305 0.1076646 -0.9303045
vn -0.5808071 -0.0969872 0.808243
vn -0.5808071 -0.0969872 0.808243
vn -0.5808071 -0.09698721 0.808243
vn 0.5854784 0.1193037 0.8018613
vn 0.5854785 0.1193037 0.8018612
vn 0.5854785 0.1193037 0.8018613
vn -0.5766984 0.03365193 0.8162637
vn -0.5766984 0.03365193 0.8162637
vn -0.5766983 0.03365193 0.8162637
vn -0.04203206 0.1086246 0.9931938
vn -0.04203205 0.1086246 0.9931938
vn -0.04203206 0.1086246 0.9931938
vn -0.4443868 0.1248659 -0.8870901
vn -0.4443868 0.1248659 -0.8870901
vn -0.4443868 0.1248659 -0.8870901
vn -0.9081746 0.0258356 -0.4177936
vn -0.9081746 0.0258356 -0.4177936
vn -0.9081746 0.0258356 -0.4177936
vn -0.8978822 0.02212606 -0.4396795
vn -0.8978822 0.02212606 -0.4396795
vn -0.8978822 0.02212606 -0.4396795
vn -0.3017308 0.9411711 -0.1521694
vn -0.3017308 0.9411711 -0.1521694
vn -0.3017308 0.9411711 -0.1521694
vn 0.3722658 0.9275004 0.03407517
vn 0.3722658 0.9275004 0.03407517
vn 0.3722658 0.9275004 0.03407517
vn 0.6124076 0.1654164 -0.7730423
vn 0.6124076 0.1654164 -0.7730423
vn 0.6124076 0.1654164 -0.7730423
vn 0.3663176 0.239804 -0.8990582
vn 0.3663176 0.2398039 -0.8990582
vn 0.3663176 0.239804 -0.8990582
vn 0.3851573 0.9221265 0.03655806
vn 0.3851574 0.9221265 0.03655807
vn 0.3851574 0.9221265 0.03655807
vn -0.4334586 0.1246223 -0.8925149
vn -0.4334586 0.1246223 -0.8925149
vn -0.4334586 0.1246223 -0.8925149
vn 0.5176403 0.7144782 -0.4707114
vn 0.5176403 0.7144782 -0.4707114
vn 0.5176404 0.7144782 -0.4707114
vn -0.9540742 0.233093 -0.1881752
vn -0.9540742 0.233093 -0.1881752
vn -0.9540742 0.233093 -0.1881752
vn 0.5723863 -0.1161763 -0.8117123
vn 0.5723863 -0.1161763 -0.8117123
vn 0.5723863 -0.1161763 -0.8117123
vn 0.6688237 -0.1111266 -0.7350686
vn 0.6688237 -0.1111266 -0.7350686
vn 0.6688237 -0.1111266 -0.7350686
vn -0.1326049 0.3588645 -0.9239222
vn -0.1326049 0.3588645 -0.9239222
vn -0.132605 0.3588645 -0.9239222
vn -0.002493838 0.1943023 -0.9809386
vn -0.002493838 0.1943023 -0.9809386
vn -0.002493838 0.1943023 -0.9809386
vn -0.9999225 -0.01244372 0.0003526478
vn -0.9999225 -0.01244372 0.0003526478
vn -0.9999225 -0.01244372 0.0003526478
vn -0.9876724 0.07211925 0.1389315
vn -0.9876724 0.07211926 0.1389315
vn -0.9876724 0.07211926 0.1389315
vn 0.9989793 -0.04515173 0.001278303
vn 0.9989793 -0.04515173 0.001278303
vn 0.9989793 -0.04515173 0.001278303
vn 0.8463181 0.135342 0.5151972
vn 0.8463181 0.135342 0.5151972
vn 0.8463181 0.135342 0.5151972
vn 0.9258313 0.1687212 0.3381857
vn 0.9258313 0.1687212 0.3381857
vn 0.9258313 0.1687212 0.3381857
vn -0.0005287185 0.872161 0.4892185
vn -0.0005287185 0.872161 0.4892185
vn -0.0005287185 0.872161 0.4892186
vn -0.04057718 0.8357018 0.5476826
vn -0.04057718 0.8357017 0.5476826
vn -0.04057718 0.8357017 0.5476826
vn -0.0949297 0.6461154 0.7573132
vn -0.0949297 0.6461154 0.7573132
vn -0.09492971 0.6461154 0.7573133
vn -0.8779933 -0.06901317 0.4736716
vn -0.8779934 -0.06901317 0.4736716
vn -0.8779934 -0.06901317 0.4736716
vn -0.8424633 -0.1091295 0.5275854
vn -0.8424633 -0.1091294 0.5275854
vn -0.8424633 -0.1091294 0.5275854
vn -0.9885036 -0.04522284 0.1442753
vn -0.9885036 -0.04522284 0.1442753
vn -0.9885036 -0.04522284 0.1442753
vn -0.9669753 -0.003413144 0.2548476
vn -0.9669752 -0.003413144 0.2548476
vn -0.9669752 -0.003413144 0.2548476
vn -0.9793 0.2014164 -0.02007394
vn -0.9793 0.2014164 -0.02007394
vn -0.9793 0.2014164 -0.02007394
vn -0.3879924 0.1861862 0.9026608
vn -0.3879924 0.1861862 0.9026608
vn -0.3879924 0.1861862 0.9026608
vn -0.6604667 0.113266 0.7422632
vn -0.6604667 0.113266 0.7422632
vn -0.6604667 0.113266 0.7422632
vn -0.7883294 0.04370066 0.6136995
vn -0.7883294 0.04370066 0.6136995
vn -0.7883294 0.04370066 0.6136995
vn -0.9806004 -0.09010871 0.1740783
vn -0.9806004 -0.09010872 0.1740783
vn -0.9806004 -0.09010872 0.1740783
vn 0.08524154 0.005920225 -0.9963427
vn 0.08524154 0.005920225 -0.9963427
vn 0.08524153 0.005920224 -0.9963427
vn 0.01955433 0.04733877 -0.9986874
vn 0.01955433 0.04733876 -0.9986874
vn 0.01955433 0.04733876 -0.9986874
vn -0.09042889 0.05469914 -0.9943996
vn -0.09042888 0.05469914 -0.9943996
vn -0.09042888 0.05469913 -0.9943996
vn 0.4267612 0.9040021 -0.02559364
vn 0.4267612 0.9040021 -0.02559364
vn 0.4267612 0.9040021 -0.02559364
vn 0.5367978 0.8436002 0.0136765
vn 0.5367978 0.8436002 0.0136765
vn 0.5367978 0.8436002 0.0136765
vn -0.07010066 0.28172 -0.9569325
vn -0.07010066 0.28172 -0.9569325
vn -0.07010066 0.28172 -0.9569325
vn 0.8861507 0.3043251 0.3494613
vn 0.8861507 0.3043251 0.3494613
vn 0.8861507 0.3043252 0.3494613
vn 0.9730719 0.1296537 0.1905807
vn 0.9730719 0.1296537 0.1905807
vn 0.9730719 0.1296537 0.1905807
vn 0.004200535 0.1658068 -0.9861493
vn 0.004200534 0.1658068 -0.9861493
vn 0.004200534 0.1658068 -0.9861493
vn 0.123105 0.08031619 0.9891382
vn 0.1621814 0.1425465 0.9764106
vn 0.1673007 0.139652 0.9759651
vn 0.3654179 0.04970706 0.9295154
vn 0.4255336 -0.05368656 0.9033488
vn 0.009822214 0.1865455 0.9823972
vn 0.06915348 0.9972036 -0.02833503
vn 0.06915347 0.9972036 -0.02833503
vn 0.06915348 0.9972036 -0.02833503
vn 0.06937881 0.9971909 -0.02823174
vn -0.01627059 0.9994664 -0.02832431
vn -0.01627059 0.9994664 -0.02832431
vn -0.01627059 0.9994664 -0.02832431
vn -0.01627059 0.9994664 -0.02832429
vn 0.9983261 -0.05637121 -0.01292842
vn 0.9983261 -0.05637121 -0.01292842
vn 0.9983261 -0.05637121 -0.01292842
vn 0.9957514 -0.09204543 0.002615424
vn 0.9989787 -0.04516646 0.00126571
vn 0.9989787 -0.04516646 0.00126571
vn 0.9989787 -0.04516647 0.00126571
vn 0.998978 -0.04518045 0.001280388
vn 0.8335357 0.01170032 -0.5523417
vn 0.8335357 0.01170032 -0.5523417
vn 0.8335357 0.01170032 -0.5523417
vn 0.8320759 0.01170401 -0.5545383
vn 0.05690632 0.1685217 -0.9840539
vn 0.05690632 0.1685217 -0.9840539
vn 0.05690632 0.1685217 -0.9840539
vn 0.03641882 0.1755887 -0.9837897
vn 0.5800114 0.1198557 0.8057427
vn 0.5800114 0.1198557 0.8057427
vn 0.5800114 0.1198557 0.8057427
vn 0.6014197 0.1134278 0.7908403
vn 0.3069412 0.3884121 0.8688632
vn -0.1090333 0.2540376 0.961029
vn 0.1908742 0.2227056 0.9560174
vn -0.08530268 0.1665717 0.9823326
vn 0.0900673 0.1123917 0.9895737
vn 0.07383202 0.1555489 0.9850652
vn -0.1066462 0.1071937 0.9885019
vn -0.1251344 0.1624489 0.9787501
vn -0.09404628 0.1751524 0.9800393
vn -0.2072162 0.1744576 0.9626142
vn -0.1245424 0.06995644 0.9897451
vn -0.2511381 0.1265322 0.9596453
vn -0.2397113 0.1845669 0.9531388
vn -0.3011195 0.05483866 0.9520082
vn -0.2885104 0.06039004 0.9555703
vn -0.3143676 0.07409342 -0.9464054
vn -0.3143676 0.07409342 -0.9464054
vn -0.3143676 0.07409342 -0.9464054
vn -0.3430356 0.0711392 -0.9366246
g Object003_0
f 3/3/3 2/2/2 1/1/1
f 6/6/6 5/5/5 4/4/4
f 9/9/9 8/8/8 7/7/7
f 12/12/12 11/11/11 10/10/10
f 15/15/15 14/14/14 13/13/13
f 18/18/18 17/17/17 16/16/16
f 21/21/21 20/20/20 19/19/19
f 24/24/24 23/23/23 22/22/22
f 27/27/27 26/26/26 25/25/25
f 30/30/30 29/29/29 28/28/28
f 33/33/33 32/32/32 31/31/31
f 36/36/36 35/35/35 34/34/34
f 39/39/39 38/38/38 37/37/37
f 42/42/42 41/41/41 40/40/40
f 45/45/45 44/44/44 43/43/43
f 48/48/48 47/47/47 46/46/46
f 51/51/51 50/50/50 49/49/49
f 54/54/54 53/53/53 52/52/52
f 57/57/57 56/56/56 55/55/55
f 60/60/60 59/59/59 58/58/58
f 63/63/63 62/62/62 61/61/61
f 66/66/66 65/65/65 64/64/64
f 69/69/69 68/68/68 67/67/67
f 72/72/72 71/71/71 70/70/70
f 75/75/75 74/74/74 73/73/73
f 78/78/78 77/77/77 76/76/76
f 81/81/81 80/80/80 79/79/79
f 84/84/84 83/83/83 82/82/82
f 87/87/87 86/86/86 85/85/85
f 90/90/90 89/89/89 88/88/88
f 93/93/93 92/92/92 91/91/91
f 96/96/96 95/95/95 94/94/94
f 99/99/99 98/98/98 97/97/97
f 102/102/102 101/101/101 100/100/100
f 105/105/105 104/104/104 103/103/103
f 108/108/108 107/107/107 106/106/106
f 111/111/111 110/110/110 109/109/109
f 114/114/114 113/113/113 112/112/112
f 117/117/117 116/116/116 115/115/115
f 120/120/120 119/119/119 118/118/118
f 123/123/123 122/122/122 121/121/121
f 126/126/126 125/125/125 124/124/124
f 129/129/129 128/128/128 127/127/127
f 132/132/132 131/131/131 130/130/130
f 135/135/135 134/134/134 133/133/133
f 138/138/138 137/137/137 136/136/136
f 141/141/141 140/140/140 139/139/139
f 144/144/144 143/143/143 142/142/142
f 147/147/147 146/146/146 145/145/145
f 150/150/150 149/149/149 148/148/148
f 153/153/153 152/152/152 151/151/151
f 156/156/156 155/155/155 154/154/154
f 159/159/159 158/158/158 157/157/157
f 162/162/162 161/161/161 160/160/160
f 165/165/165 164/164/164 163/163/163
f 168/168/168 167/167/167 166/166/166
f 171/171/171 170/170/170 169/169/169
f 174/174/174 173/173/173 172/172/172
f 177/177/177 176/176/176 175/175/175
f 180/180/180 179/179/179 178/178/178
f 183/183/183 182/182/182 181/181/181
f 186/186/186 185/185/185 184/184/184
f 189/189/189 188/188/188 187/187/187
f 190/190/190 188/188/188 189/189/189
f 191/191/191 188/188/188 190/190/190
f 192/192/192 188/188/188 191/191/191
f 195/195/195 194/194/194 193/193/193
f 196/196/196 193/193/193 194/194/194
f 199/199/199 198/198/198 197/197/197
f 200/200/200 197/197/197 198/198/198
f 203/203/203 202/202/202 201/201/201
f 204/204/204 201/201/201 202/202/202
f 207/207/207 206/206/206 205/205/205
f 208/208/208 205/205/205 206/206/206
f 211/211/211 210/210/210 209/209/209
f 212/212/212 209/209/209 210/210/210
f 215/215/215 214/214/214 213/213/213
f 215/215/215 216/216/216 214/214/214
f 219/219/219 218/218/218 217/217/217
f 220/220/220 219/219/219 217/217/217
f 223/223/223 222/222/222 221/221/221
f 224/224/224 222/222/222 223/223/223
f 225/225/225 224/224/224 223/223/223
f 226/226/226 224/224/224 225/225/225
f 227/227/227 224/224/224 226/226/226
f 228/228/228 222/222/222 224/224/224
f 228/228/228 224/224/224 227/227/227
f 222/222/222 228/228/228 229/229/229
f 230/230/230 229/229/229 228/228/228
f 231/231/231 228/228/228 227/227/227
f 232/232/232 231/231/231 227/227/227
f 230/230/230 228/228/228 233/233/233
f 230/230/230 233/233/233 234/234/234
f 235/235/235 234/234/234 233/233/233
f 238/238/238 237/237/237 236/236/236
f 239/239/239 236/236/236 237/237/237
